<svg width="208" height="208" viewBox="0 0 208 208" fill="none" xmlns="http://www.w3.org/2000/svg">
<g opacity="0.88">
<circle cx="104" cy="104" r="104" transform="rotate(180 104 104)" fill="#194350"/>
<path d="M104.889 57.8599L128 76.2128V108.065H118.756V83.5948H91.0222V108.065H81.7778V76.2128L104.889 57.8599ZM104.889 46.8889L58.6667 83.5948H72.5333V116.222H100.267V91.7516H109.511V116.222H137.244V83.5948H151.111L104.889 46.8889Z" fill="#FF8882"/>
<path d="M31.4943 135.545H35.6278L39.608 143.062H39.7784L43.7585 135.545H47.892L41.5256 146.83V153H37.8608V146.83L31.4943 135.545ZM64.8928 144.273C64.8928 146.176 64.532 147.795 63.8104 149.131C63.0945 150.466 62.1172 151.486 60.8786 152.19C59.6456 152.889 58.2592 153.239 56.7195 153.239C55.1683 153.239 53.7763 152.886 52.5433 152.182C51.3104 151.477 50.3359 150.457 49.62 149.122C48.9041 147.787 48.5462 146.17 48.5462 144.273C48.5462 142.369 48.9041 140.75 49.62 139.415C50.3359 138.08 51.3104 137.062 52.5433 136.364C53.7763 135.659 55.1683 135.307 56.7195 135.307C58.2592 135.307 59.6456 135.659 60.8786 136.364C62.1172 137.062 63.0945 138.08 63.8104 139.415C64.532 140.75 64.8928 142.369 64.8928 144.273ZM61.1513 144.273C61.1513 143.04 60.9666 142 60.5973 141.153C60.2337 140.307 59.7195 139.665 59.0547 139.227C58.3899 138.79 57.6115 138.571 56.7195 138.571C55.8274 138.571 55.049 138.79 54.3842 139.227C53.7195 139.665 53.2024 140.307 52.8331 141.153C52.4695 142 52.2876 143.04 52.2876 144.273C52.2876 145.506 52.4695 146.545 52.8331 147.392C53.2024 148.239 53.7195 148.881 54.3842 149.318C55.049 149.756 55.8274 149.974 56.7195 149.974C57.6115 149.974 58.3899 149.756 59.0547 149.318C59.7195 148.881 60.2337 148.239 60.5973 147.392C60.9666 146.545 61.1513 145.506 61.1513 144.273ZM78.4077 135.545H82.098V146.881C82.098 148.153 81.794 149.267 81.1861 150.222C80.5838 151.176 79.7401 151.92 78.6548 152.455C77.5696 152.983 76.3054 153.247 74.8622 153.247C73.4134 153.247 72.1463 152.983 71.0611 152.455C69.9759 151.92 69.1321 151.176 68.5298 150.222C67.9276 149.267 67.6264 148.153 67.6264 146.881V135.545H71.3168V146.565C71.3168 147.23 71.4616 147.821 71.7514 148.338C72.0469 148.855 72.4616 149.261 72.9957 149.557C73.5298 149.852 74.152 150 74.8622 150C75.5781 150 76.2003 149.852 76.7287 149.557C77.2628 149.261 77.6747 148.855 77.9645 148.338C78.2599 147.821 78.4077 147.23 78.4077 146.565V135.545ZM85.1342 153V135.545H92.0206C93.3388 135.545 94.4638 135.781 95.3956 136.253C96.3331 136.719 97.0462 137.381 97.5348 138.239C98.0291 139.091 98.2763 140.094 98.2763 141.247C98.2763 142.406 98.0263 143.403 97.5263 144.239C97.0263 145.068 96.3018 145.705 95.353 146.148C94.4098 146.591 93.2678 146.812 91.9268 146.812H87.3161V143.847H91.3303C92.0348 143.847 92.62 143.75 93.0859 143.557C93.5518 143.364 93.8984 143.074 94.1257 142.688C94.3587 142.301 94.4751 141.821 94.4751 141.247C94.4751 140.668 94.3587 140.179 94.1257 139.781C93.8984 139.384 93.549 139.082 93.0774 138.878C92.6115 138.668 92.0234 138.562 91.3132 138.562H88.8246V153H85.1342ZM94.5604 145.057L98.8984 153H94.8246L90.5803 145.057H94.5604ZM100.884 153V135.545H104.575V142.747H112.066V135.545H115.748V153H112.066V145.79H104.575V153H100.884ZM134.83 144.273C134.83 146.176 134.469 147.795 133.748 149.131C133.032 150.466 132.055 151.486 130.816 152.19C129.583 152.889 128.197 153.239 126.657 153.239C125.106 153.239 123.714 152.886 122.481 152.182C121.248 151.477 120.273 150.457 119.558 149.122C118.842 147.787 118.484 146.17 118.484 144.273C118.484 142.369 118.842 140.75 119.558 139.415C120.273 138.08 121.248 137.062 122.481 136.364C123.714 135.659 125.106 135.307 126.657 135.307C128.197 135.307 129.583 135.659 130.816 136.364C132.055 137.062 133.032 138.08 133.748 139.415C134.469 140.75 134.83 142.369 134.83 144.273ZM131.089 144.273C131.089 143.04 130.904 142 130.535 141.153C130.171 140.307 129.657 139.665 128.992 139.227C128.327 138.79 127.549 138.571 126.657 138.571C125.765 138.571 124.987 138.79 124.322 139.227C123.657 139.665 123.14 140.307 122.771 141.153C122.407 142 122.225 143.04 122.225 144.273C122.225 145.506 122.407 146.545 122.771 147.392C123.14 148.239 123.657 148.881 124.322 149.318C124.987 149.756 125.765 149.974 126.657 149.974C127.549 149.974 128.327 149.756 128.992 149.318C129.657 148.881 130.171 148.239 130.535 147.392C130.904 146.545 131.089 145.506 131.089 144.273ZM137.564 135.545H142.115L146.922 147.273H147.126L151.933 135.545H156.484V153H152.905V141.639H152.76L148.243 152.915H145.805L141.288 141.597H141.143V153H137.564V135.545ZM159.525 153V135.545H171.286V138.588H163.215V142.747H170.681V145.79H163.215V149.957H171.32V153H159.525Z" fill="#FF8882"/>
</g>
</svg>
