<svg width="208" height="208" viewBox="0 0 208 208" fill="none" xmlns="http://www.w3.org/2000/svg">
<g opacity="0.88">
<circle cx="104" cy="104" r="104" transform="rotate(180 104 104)" fill="#194350"/>
<path d="M104.889 57.8599L128 76.2128V108.065H118.756V83.5948H91.0222V108.065H81.7778V76.2128L104.889 57.8599ZM104.889 46.8889L58.6667 83.5948H72.5333V116.222H100.267V91.7516H109.511V116.222H137.244V83.5948H151.111L104.889 46.8889Z" fill="#FF8882"/>
<path d="M59.517 147V129.545H63.2074V136.747H70.6989V129.545H74.3807V147H70.6989V139.79H63.2074V147H59.517ZM93.4631 138.273C93.4631 140.176 93.1023 141.795 92.3807 143.131C91.6648 144.466 90.6875 145.486 89.4489 146.19C88.2159 146.889 86.8295 147.239 85.2898 147.239C83.7386 147.239 82.3466 146.886 81.1136 146.182C79.8807 145.477 78.9063 144.457 78.1903 143.122C77.4744 141.787 77.1165 140.17 77.1165 138.273C77.1165 136.369 77.4744 134.75 78.1903 133.415C78.9063 132.08 79.8807 131.062 81.1136 130.364C82.3466 129.659 83.7386 129.307 85.2898 129.307C86.8295 129.307 88.2159 129.659 89.4489 130.364C90.6875 131.062 91.6648 132.08 92.3807 133.415C93.1023 134.75 93.4631 136.369 93.4631 138.273ZM89.7216 138.273C89.7216 137.04 89.5369 136 89.1676 135.153C88.804 134.307 88.2898 133.665 87.625 133.227C86.9602 132.79 86.1818 132.571 85.2898 132.571C84.3977 132.571 83.6193 132.79 82.9545 133.227C82.2898 133.665 81.7727 134.307 81.4034 135.153C81.0398 136 80.858 137.04 80.858 138.273C80.858 139.506 81.0398 140.545 81.4034 141.392C81.7727 142.239 82.2898 142.881 82.9545 143.318C83.6193 143.756 84.3977 143.974 85.2898 143.974C86.1818 143.974 86.9602 143.756 87.625 143.318C88.2898 142.881 88.804 142.239 89.1676 141.392C89.5369 140.545 89.7216 139.506 89.7216 138.273ZM96.1967 129.545H100.748L105.555 141.273H105.759L110.566 129.545H115.117V147H111.538V135.639H111.393L106.876 146.915H104.438L99.9212 135.597H99.7763V147H96.1967V129.545ZM118.158 129.545H122.709L127.516 141.273H127.72L132.527 129.545H137.078V147H133.499V135.639H133.354L128.837 146.915H126.399L121.882 135.597H121.737V147H118.158V129.545ZM139.096 129.545H143.229L147.21 137.062H147.38L151.36 129.545H155.494L149.127 140.83V147H145.462V140.83L139.096 129.545Z" fill="#FF8882"/>
</g>
</svg>
